<?xml version="1.0" encoding="utf-8"?>
<!-- Generator: Adobe Illustrator 28.2.0, SVG Export Plug-In . SVG Version: 6.00 Build 0)  -->
<svg version="1.1" xmlns="http://www.w3.org/2000/svg" xmlns:xlink="http://www.w3.org/1999/xlink" x="0px" y="0px"
	 viewBox="0 0 500 500" style="enable-background:new 0 0 500 500;" xml:space="preserve">
<style type="text/css">
	.st0{fill:#2563EB;}
</style>
<g id="BACKGROUND">
</g>
<g id="OBJECTS">
	<g>
		<g>
		</g>
		<g>
			<path class="st0" d="M86.83,237.26c-2.77,0-5.08-0.95-6.92-2.85c-1.84-1.9-2.76-4.24-2.76-7.01c0-2.77,0.92-5.11,2.76-7.01
				c1.84-1.9,4.14-2.85,6.92-2.85c2.84,0,5.16,0.95,6.97,2.85c1.81,1.9,2.71,4.24,2.71,7.01c0,2.77-0.9,5.11-2.71,7.01
				C91.99,236.31,89.67,237.26,86.83,237.26z M77.35,289.31v-47.6h18.96v47.6H77.35z"/>
			<path class="st0" d="M125.92,290.28c-4.71,0-8.82-1.07-12.34-3.19c-3.52-2.13-6.26-5.05-8.22-8.75
				c-1.97-3.71-2.95-7.98-2.95-12.82c0-4.84,0.98-9.13,2.95-12.87c1.97-3.74,4.71-6.66,8.22-8.76c3.51-2.1,7.63-3.14,12.34-3.14
				c2.84,0,5.52,0.47,8.03,1.4c2.52,0.94,4.66,2.24,6.44,3.92c1.77,1.68,2.89,3.61,3.34,5.8v26.32c-0.45,2.19-1.56,4.21-3.34,6.05
				c-1.78,1.84-3.92,3.31-6.44,4.4C131.43,289.73,128.76,290.28,125.92,290.28z M129.4,273.64c1.61,0,3-0.34,4.16-1.02
				c1.16-0.68,2.08-1.63,2.76-2.85c0.68-1.22,1.02-2.64,1.02-4.26c0-1.61-0.32-3.01-0.97-4.21c-0.65-1.19-1.57-2.14-2.76-2.85
				c-1.2-0.71-2.56-1.06-4.11-1.06c-1.55,0-2.92,0.36-4.11,1.06c-1.19,0.71-2.15,1.68-2.85,2.9c-0.71,1.23-1.06,2.61-1.06,4.16
				c0,1.55,0.34,2.94,1.02,4.16c0.68,1.22,1.63,2.19,2.85,2.9C126.56,273.28,127.92,273.64,129.4,273.64z M155.24,289.31h-18.48
				v-12.77l2.61-11.61l-3.1-11.51v-34.93h18.96V289.31z"/>
			<path class="st0" d="M186.97,290.47c-4.64,0-8.76-0.9-12.34-2.71c-3.58-1.81-6.4-4.32-8.47-7.55c-2.07-3.23-3.1-6.9-3.1-11.03
				v-27.48h18.96v27.67c0,0.97,0.21,1.84,0.63,2.61s1,1.37,1.74,1.79c0.74,0.42,1.6,0.63,2.56,0.63c1.35,0,2.5-0.47,3.43-1.4
				c0.93-0.93,1.4-2.14,1.4-3.63v-27.67h18.96v27.48c0,4.19-1.02,7.89-3.05,11.08c-2.03,3.19-4.84,5.69-8.42,7.5
				C195.72,289.57,191.61,290.47,186.97,290.47z"/>
			<path class="st0" d="M237.57,290.76c-2.97,0-5.93-0.39-8.9-1.16c-2.97-0.77-5.72-1.84-8.27-3.19c-2.55-1.35-4.69-2.9-6.43-4.64
				l9.97-10.26c1.55,1.55,3.4,2.77,5.56,3.68c2.16,0.9,4.43,1.35,6.82,1.35c1.1,0,1.95-0.14,2.56-0.43
				c0.61-0.29,0.92-0.69,0.92-1.21c0-0.9-0.53-1.58-1.6-2.03c-1.06-0.45-2.42-0.87-4.06-1.26c-1.64-0.39-3.39-0.89-5.23-1.5
				c-1.84-0.61-3.6-1.45-5.27-2.52c-1.68-1.06-3.03-2.55-4.06-4.45c-1.03-1.9-1.55-4.34-1.55-7.31c0-3.03,0.85-5.72,2.56-8.08
				c1.71-2.35,4.13-4.22,7.26-5.61c3.13-1.39,6.76-2.08,10.88-2.08c4.19,0,8.26,0.71,12.19,2.13c3.93,1.42,7.06,3.55,9.38,6.39
				l-10.06,10.25c-1.61-1.8-3.39-3.01-5.32-3.63c-1.94-0.61-3.55-0.92-4.84-0.92c-1.22,0-2.08,0.18-2.56,0.53
				c-0.48,0.36-0.73,0.79-0.73,1.31c0,0.71,0.52,1.29,1.55,1.74s2.37,0.87,4.02,1.26c1.64,0.39,3.37,0.9,5.18,1.55
				c1.8,0.65,3.53,1.55,5.18,2.71c1.64,1.16,2.98,2.69,4.02,4.59c1.03,1.9,1.55,4.37,1.55,7.4c0,4.71-1.87,8.45-5.61,11.22
				C248.92,289.38,243.89,290.76,237.57,290.76z"/>
			<path class="st0" d="M262.53,236.76v-16.48h60.8v16.48H262.53z M283.19,289.31v-69.04h19.39v69.04H283.19z"/>
			<path class="st0" d="M338.81,237.26c-2.77,0-5.08-0.95-6.92-2.85c-1.84-1.9-2.76-4.24-2.76-7.01c0-2.77,0.92-5.11,2.76-7.01
				c1.84-1.9,4.14-2.85,6.92-2.85c2.84,0,5.16,0.95,6.97,2.85c1.81,1.9,2.71,4.24,2.71,7.01c0,2.77-0.9,5.11-2.71,7.01
				C343.97,236.31,341.65,237.26,338.81,237.26z M329.33,289.31v-47.6h18.96v47.6H329.33z"/>
			<path class="st0" d="M357.29,289.31v-47.6h18.96v47.6H357.29z M386.61,289.31v-27.28c0-1.61-0.48-2.89-1.45-3.82
				c-0.97-0.93-2.19-1.4-3.68-1.4c-1.03,0-1.95,0.21-2.76,0.63c-0.81,0.42-1.42,1.02-1.84,1.79c-0.42,0.78-0.63,1.71-0.63,2.81
				l-7.35-2.71c0-3.87,0.85-7.19,2.56-9.96c1.71-2.77,4.02-4.9,6.92-6.39c2.9-1.48,6.19-2.23,9.87-2.23c3.22,0,6.14,0.77,8.76,2.32
				c2.61,1.55,4.69,3.69,6.24,6.43c1.55,2.74,2.32,5.98,2.32,9.72v30.09H386.61z M415.93,289.31v-27.28c0-1.61-0.48-2.89-1.45-3.82
				c-0.97-0.93-2.19-1.4-3.68-1.4c-1.03,0-1.95,0.21-2.76,0.63c-0.81,0.42-1.42,1.02-1.84,1.79c-0.42,0.78-0.63,1.71-0.63,2.81
				l-11.13,0.1c0-4.45,0.89-8.27,2.66-11.46c1.77-3.19,4.24-5.64,7.4-7.35c3.16-1.71,6.77-2.56,10.84-2.56
				c3.8,0,7.17,0.81,10.11,2.42c2.93,1.61,5.24,3.94,6.92,6.97c1.68,3.03,2.52,6.68,2.52,10.93v28.25H415.93z"/>
			<path class="st0" d="M467.69,290.47c-5.55,0-10.42-1.05-14.61-3.14c-4.19-2.1-7.47-5.03-9.82-8.8
				c-2.36-3.77-3.53-8.11-3.53-13.01c0-4.84,1.14-9.13,3.43-12.87c2.29-3.74,5.43-6.69,9.43-8.85c4-2.16,8.51-3.24,13.55-3.24
				c4.97,0,9.35,1.02,13.16,3.05c3.8,2.03,6.79,4.85,8.95,8.47c2.16,3.61,3.24,7.74,3.24,12.38c0,0.97-0.05,1.98-0.14,3.05
				c-0.1,1.07-0.31,2.31-0.63,3.73l-42.96,0.29V259.9l35.9-0.29l-8.81,5.13c0-2.58-0.31-4.69-0.92-6.34
				c-0.61-1.64-1.53-2.89-2.76-3.73c-1.23-0.84-2.77-1.26-4.64-1.26c-1.93,0-3.61,0.48-5.03,1.45c-1.42,0.97-2.5,2.35-3.24,4.16
				c-0.74,1.81-1.11,4-1.11,6.58c0,2.65,0.4,4.85,1.21,6.63c0.81,1.77,1.98,3.11,3.53,4.02c1.55,0.9,3.48,1.35,5.8,1.35
				c2.26,0,4.24-0.37,5.95-1.11c1.71-0.74,3.27-1.92,4.69-3.53l9.48,9.39c-2.39,2.71-5.26,4.74-8.61,6.09
				C475.85,289.8,472.01,290.47,467.69,290.47z"/>
		</g>
		<path id="XMLID_00000179624244977355101260000013749648336678164410_" class="st0" d="M75.12,214.11l-35.6,35.15
			c-2.92-0.59-6.06,0.36-8.13,2.78c-3.05,3.55-2.64,8.91,0.91,11.96c3.55,3.05,8.91,2.64,11.96-0.91c2.08-2.42,2.55-5.67,1.52-8.46
			L75.12,214.11z"/>
		<path class="st0" d="M48.08,255.01c0.82,3.3,0,6.83-2.24,9.44c-2.01,2.34-4.94,3.69-8.03,3.69c0,0,0,0,0,0
			c-1.62,0-3.2-0.37-4.64-1.07l9.64,23.69h22.14v-53.4c0-3.43,0.29-5.49,2.65-6.66v-2.63L48.08,255.01z"/>
		<path class="st0" d="M29.79,250.67c2.01-2.34,4.94-3.69,8.03-3.69c0.32,0,0.64,0.01,0.97,0.04l3.89-3.84l-9.46-25.23H8.13v12.74
			c2.25,1.18,2.74,3.14,2.74,6.66v33.8c0,3.53-0.49,5.49-2.74,6.66v12.93h23.32v-12.93c-2.45-0.88-2.74-2.84-2.74-6.66v-8.22
			c-0.82-1.38-1.31-2.94-1.44-4.58C27.05,255.55,27.95,252.81,29.79,250.67z"/>
	</g>
</g>
</svg>
